<?xml version="1.0" encoding="UTF-8"?>
<svg id="Layer_1" data-name="Layer 1" xmlns="http://www.w3.org/2000/svg" viewBox="0 0 40 40">
  <defs>
    <style>
      .cls-1 {
        fill: #231f20;
      }
    </style>
  </defs>
  <path class="cls-1" d="M25.81,28.6c-.03-.18-4.04-18.09-10.08-18.63-4.38-.37-6.45,5.48-9.74,15.87-.27.85-.52,1.66-.77,2.41-.51,1.58.35,3.27,1.93,3.78.31.1.62.15.93.15,1.27,0,2.44-.81,2.85-2.08.25-.76.51-1.59.78-2.46.03-.09.07-.21.1-.3h7.56c.23.84.41,1.62.53,2.3.29,1.63,1.85,2.72,3.48,2.43,1.63-.29,2.72-1.85,2.43-3.48ZM13.81,21.35c.55-1.55,1.12-3.03,1.65-4.11.58,1.06,1.24,2.52,1.88,4.11h-3.53Z"/>
  <path class="cls-1" d="M31.46,31.32c-.27,0-.55-.04-.83-.12-1.59-.46-2.51-2.12-2.06-3.71.63-2.2.28-7.15-.09-9.76-.23-1.64.91-3.16,2.55-3.39,1.64-.24,3.16.91,3.39,2.55.12.82,1.1,8.11-.09,12.25-.38,1.32-1.58,2.18-2.88,2.18Z"/>
  <path class="cls-1" d="M31.46,13.78c-.79,0-1.57-.32-2.13-.88-.13-.14-.26-.29-.37-.46-.11-.16-.2-.33-.28-.52-.07-.18-.13-.37-.17-.56-.04-.19-.05-.39-.05-.58,0-.2,0-.4.05-.59.04-.19.1-.38.17-.56.08-.18.17-.36.28-.52s.24-.32.37-.45c1.12-1.12,3.13-1.12,4.25,0,.14.13.26.29.37.45.11.16.2.34.28.52.07.18.13.37.17.56.03.19.05.39.05.59,0,.19-.02.39-.05.58-.04.19-.1.38-.18.56-.07.19-.16.36-.27.52-.11.17-.24.32-.37.46-.14.14-.3.26-.46.37-.16.11-.34.2-.52.28-.18.07-.37.13-.56.17s-.39.06-.58.06Z"/>
</svg>